# xmcd CD database file
#
# Track frame offsets:
#	150
#	31965
#	61714
#	89386
#	126488
#	158492
#	175439
#	202022
#	229800
#
# Disc length: 3445 seconds
#
# Revision: 4
# Processed by: cddbd v1.5.2PL0 Copyright (c) Steve Scherf et al.
# Submitted via: CDex 1.70beta3
#
DISCID=740d7309
DTITLE=Rudresh Mahanthappa - Codebook
DYEAR=2006
DGENRE=Jazz
TTITLE0=The Decider
TTITLE1=Refresh
TTITLE2=Enhanced Performance
TTITLE3=Further And In Between
TTITLE4=Play It Again Sam
TTITLE5=Frontburner
TTITLE6=D (Dee-Dee)
TTITLE7=Wait It Through
TTITLE8=My Sweetest
EXTD=YEAR: 2006
EXTT0=
EXTT1=
EXTT2=
EXTT3=
EXTT4=
EXTT5=
EXTT6=
EXTT7=
EXTT8=
PLAYORDER=
